<svg width="134" height="134" viewBox="0 0 134 134" fill="none" xmlns="http://www.w3.org/2000/svg">
<path d="M116.216 37.2059C113.832 21.4607 100.322 9.75373 84.2347 9.75373C80.9208 9.75373 77.6656 10.2505 74.5391 11.2324C67.9885 5.32964 59.5813 2.09375 50.7229 2.09375C31.0891 2.09375 15.1161 18.067 15.1161 37.7008C15.1161 37.8984 15.1179 38.0989 15.1216 38.301C7.15984 42.1584 2.09375 50.1508 2.09375 59.0532C2.09375 71.7703 12.44 82.1163 25.1572 82.1163H36.1172V120.649C36.1172 128.04 51.6533 131.906 67 131.906C82.3469 131.906 97.8828 128.04 97.8828 120.649V82.1163H108.843C121.56 82.1163 131.906 71.7703 131.906 59.0532C131.906 49.1495 125.522 40.3599 116.216 37.2059ZM49.5913 64.4611C50.1466 64.4611 50.6791 64.2405 51.0718 63.8478C51.4644 63.4552 51.685 62.9226 51.685 62.3673V59.1641C55.2865 58.4025 59.7093 57.8584 64.9062 57.7417V62.3673C64.9062 62.9226 65.1268 63.4552 65.5195 63.8478C65.9121 64.2405 66.4447 64.4611 67 64.4611C67.5553 64.4611 68.0879 64.2405 68.4805 63.8478C68.8732 63.4552 69.0938 62.9226 69.0938 62.3673V57.7417C74.2907 57.8584 78.7135 58.4025 82.315 59.1641V62.3676C82.315 62.9229 82.5356 63.4554 82.9282 63.8481C83.3209 64.2407 83.8534 64.4613 84.4087 64.4613C84.964 64.4613 85.4966 64.2407 85.8893 63.8481C86.2819 63.4554 86.5025 62.9229 86.5025 62.3676V60.25C91.2239 61.7366 93.6956 63.5574 93.6956 64.7848C93.6956 67.1842 84.2732 71.8541 67.0003 71.8541C49.7276 71.8541 40.305 67.1842 40.305 64.7848C40.305 63.5574 42.7766 61.7368 47.4975 60.25V62.3673C47.4975 62.9226 47.7181 63.4552 48.1107 63.8478C48.5034 64.2405 49.036 64.4611 49.5913 64.4611ZM67 127.719C49.7273 127.719 40.3047 123.049 40.3047 120.649V107.984C45.9536 111.481 56.52 113.284 67 113.284C77.48 113.284 88.0464 111.481 93.6953 107.984V120.649C93.6953 123.049 84.2729 127.719 67 127.719ZM67 109.097C49.7273 109.097 40.3047 104.427 40.3047 102.028V89.3626C45.9536 92.8594 56.52 94.6629 67 94.6629C77.48 94.6629 88.0464 92.8591 93.6953 89.3623V102.028C93.6953 104.427 84.2729 109.097 67 109.097ZM67 90.4754C49.7273 90.4754 40.3047 85.8055 40.3047 83.4061V70.7407C45.9536 74.2376 56.52 76.0411 67 76.0411C77.48 76.0411 88.0464 74.2376 93.6953 70.7407V83.4061C93.6953 85.8055 84.2729 90.4754 67 90.4754ZM108.843 77.9288H97.8828V64.7846C97.8828 60.7405 93.2302 57.7514 86.5022 55.8741V44.1362L87.6975 45.8979C87.8519 46.1254 88.0495 46.3203 88.2792 46.4715C88.5089 46.6227 88.7662 46.7271 89.0362 46.7788C89.3063 46.8306 89.5839 46.8286 89.8532 46.7731C90.1225 46.7175 90.3782 46.6095 90.6057 46.4551C90.8332 46.3007 91.0281 46.1031 91.1793 45.8734C91.3304 45.6437 91.4348 45.3865 91.4865 45.1165C91.5382 44.8464 91.5362 44.5688 91.4807 44.2996C91.4251 44.0303 91.317 43.7746 91.1627 43.5471L86.1411 36.1462C85.9491 35.8634 85.6909 35.6319 85.3889 35.4719C85.0869 35.3119 84.7503 35.2283 84.4085 35.2283C84.0667 35.2283 83.7301 35.3119 83.4281 35.4719C83.1261 35.6319 82.8679 35.8634 82.6759 36.1462L77.6543 43.5471C77.352 44.0067 77.2427 44.5668 77.3501 45.1063C77.4575 45.6459 77.7729 46.1215 78.2281 46.4303C78.6833 46.7391 79.2418 46.8564 79.7828 46.7568C80.3238 46.6572 80.8039 46.3486 81.1192 45.8979L82.3142 44.1365V54.8966C78.2366 54.1085 73.6888 53.6573 69.093 53.5521V44.1365L70.288 45.8979C70.4799 46.1812 70.7383 46.4131 71.0407 46.5733C71.3431 46.7334 71.6802 46.817 72.0224 46.8165C72.441 46.8167 72.85 46.6908 73.1959 46.4551C73.4235 46.3007 73.6183 46.1031 73.7695 45.8734C73.9206 45.6437 74.025 45.3865 74.0767 45.1165C74.1284 44.8464 74.1264 44.5688 74.0709 44.2996C74.0153 44.0303 73.9073 43.7746 73.7529 43.5471L68.7326 36.146C68.5406 35.8632 68.2824 35.6317 67.9804 35.4717C67.6784 35.3117 67.3418 35.228 67 35.228C66.6582 35.228 66.3216 35.3117 66.0196 35.4717C65.7176 35.6317 65.4594 35.8632 65.2674 36.146L60.2458 43.5469C60.0882 43.7743 59.9771 44.0307 59.9192 44.3013C59.8613 44.5719 59.8575 44.8513 59.9082 45.1234C59.9589 45.3954 60.0631 45.6547 60.2146 45.8863C60.3662 46.1178 60.5621 46.317 60.7911 46.4724C61.0201 46.6278 61.2776 46.7362 61.5488 46.7914C61.82 46.8466 62.0994 46.8475 62.3709 46.7941C62.6425 46.7406 62.9007 46.6339 63.1307 46.48C63.3607 46.3261 63.5579 46.1282 63.711 45.8976L64.906 44.1362V53.5518C60.3105 53.6571 55.7623 54.1083 51.6847 54.8963V44.1362L52.88 45.8979C53.0344 46.1254 53.232 46.3203 53.4617 46.4715C53.6914 46.6227 53.9487 46.7271 54.2187 46.7788C54.4888 46.8306 54.7664 46.8286 55.0357 46.7731C55.305 46.7175 55.5607 46.6095 55.7882 46.4551C56.0158 46.3007 56.2106 46.1031 56.3618 45.8734C56.5129 45.6437 56.6173 45.3865 56.669 45.1165C56.7207 44.8464 56.7187 44.5688 56.6632 44.2996C56.6076 44.0303 56.4996 43.7746 56.3452 43.5471L51.3236 36.1462C51.1316 35.8634 50.8734 35.6319 50.5714 35.4719C50.2694 35.3119 49.9328 35.2283 49.591 35.2283C49.2492 35.2283 48.9126 35.3119 48.6106 35.4719C48.3086 35.6319 48.0504 35.8634 47.8584 36.1462L42.8368 43.5471C42.5345 44.0067 42.4253 44.5668 42.5326 45.1063C42.64 45.6459 42.9554 46.1215 43.4106 46.4303C43.8658 46.7391 44.4243 46.8564 44.9653 46.7568C45.5063 46.6572 45.9864 46.3486 46.3017 45.8979L47.4967 44.1365V55.8741C40.7698 57.7516 36.1172 60.7405 36.1172 64.7846V77.9288H25.1572C14.7489 77.9288 6.28125 69.4612 6.28125 59.0532C6.28125 51.3641 10.9048 44.5027 18.0602 41.5727C18.4636 41.4076 18.8054 41.1206 19.0378 40.7519C19.2703 40.3832 19.3819 39.9511 19.357 39.5159C19.3221 38.9115 19.3043 38.3062 19.3036 37.7008C19.3036 20.3759 33.3982 6.28125 50.7229 6.28125C58.9184 6.28125 66.676 9.42004 72.5665 15.1192C72.8474 15.3913 73.1989 15.5792 73.5811 15.6615C73.9634 15.7439 74.3611 15.7175 74.7291 15.5854C77.7713 14.4942 80.9692 13.9412 84.2344 13.9412C98.647 13.9412 110.683 24.7311 112.232 39.039C112.277 39.4576 112.447 39.8528 112.721 40.173C112.994 40.4932 113.357 40.7236 113.764 40.8341C121.98 43.069 127.718 50.5609 127.718 59.0532C127.719 69.4612 119.251 77.9288 108.843 77.9288ZM52.8167 16.8515C52.8167 17.4068 52.5961 17.9394 52.2034 18.3321C51.8108 18.7247 51.2782 18.9453 50.7229 18.9453C40.3811 18.9453 31.9674 27.3588 31.9674 37.7006C31.9674 38.2559 31.7468 38.7884 31.3541 39.1811C30.9615 39.5737 30.4289 39.7943 29.8736 39.7943C29.3183 39.7943 28.7858 39.5737 28.3931 39.1811C28.0005 38.7884 27.7799 38.2559 27.7799 37.7006C27.7799 25.0499 38.0722 14.7578 50.7229 14.7578C51.2782 14.7578 51.8108 14.9784 52.2034 15.371C52.5961 15.7637 52.8167 16.2963 52.8167 16.8515ZM71.9768 83.2585C71.9768 83.8138 71.7562 84.3463 71.3636 84.739C70.9709 85.1316 70.4384 85.3522 69.8831 85.3522H64.1169C63.5616 85.3522 63.0291 85.1316 62.6364 84.739C62.2437 84.3463 62.0232 83.8138 62.0232 83.2585C62.0232 82.7032 62.2437 82.1706 62.6364 81.778C63.0291 81.3853 63.5616 81.1647 64.1169 81.1647H69.8831C70.4384 81.1647 70.9709 81.3853 71.3636 81.778C71.7562 82.1706 71.9768 82.7032 71.9768 83.2585ZM71.9768 101.88C71.9768 102.435 71.7562 102.968 71.3636 103.361C70.9709 103.753 70.4384 103.974 69.8831 103.974H64.1169C63.5616 103.974 63.0291 103.753 62.6364 103.361C62.2437 102.968 62.0232 102.435 62.0232 101.88C62.0232 101.325 62.2437 100.792 62.6364 100.4C63.0291 100.007 63.5616 99.7863 64.1169 99.7863H69.8831C70.4384 99.7863 70.9709 100.007 71.3636 100.4C71.7562 100.792 71.9768 101.325 71.9768 101.88ZM71.9768 120.502C71.9768 121.057 71.7562 121.59 71.3636 121.982C70.9709 122.375 70.4384 122.596 69.8831 122.596H64.1169C63.5616 122.596 63.0291 122.375 62.6364 121.982C62.2437 121.59 62.0232 121.057 62.0232 120.502C62.0232 119.947 62.2437 119.414 62.6364 119.021C63.0291 118.629 63.5616 118.408 64.1169 118.408H69.8831C70.4384 118.408 70.9709 118.629 71.3636 119.021C71.7562 119.414 71.9768 119.947 71.9768 120.502Z" fill="url(#paint0_linear_158_336)"/>
<defs>
<linearGradient id="paint0_linear_158_336" x1="25.5321" y1="8.79768" x2="163.308" y2="90.5706" gradientUnits="userSpaceOnUse">
<stop stop-color="#0F93F0"/>
<stop offset="1" stop-color="#043C74"/>
</linearGradient>
</defs>
</svg>
