<!--Licensed to the Apache Software Foundation (ASF) under one
or more contributor license agreements.  See the NOTICE file
distributed with this work for additional information
regarding copyright ownership.  The ASF licenses this file
to you under the Apache License, Version 2.0 (the
"License"); you may not use this file except in compliance
with the License.  You may obtain a copy of the License at

http://www.apache.org/licenses/LICENSE-2.0

Unless required by applicable law or agreed to in writing,
software distributed under the License is distributed on an
"AS IS" BASIS, WITHOUT WARRANTIES OR CONDITIONS OF ANY
KIND, either express or implied.  See the License for the
specific language governing permissions and limitations
under the License.-->
<svg width="134" height="134" viewBox="0 0 134 134" fill="none" xmlns="http://www.w3.org/2000/svg">
<path d="M85.2193 79.5526C80.0569 77.9095 73.2336 77.0047 66.0057 77.0047C58.7781 77.0047 51.9548 77.9095 46.7924 79.5526C39.2264 81.9606 37.6383 85.1824 37.6383 87.4609V121.45C37.6383 123.729 39.2264 126.95 46.7924 129.358C51.9546 131.001 58.7781 131.906 66.0057 131.906C73.2334 131.906 80.0569 131.001 85.219 129.358C92.7851 126.95 94.3734 123.729 94.3734 121.45V87.4609C94.3734 85.1824 92.7853 81.9606 85.2193 79.5526ZM83.9494 125.368C79.1867 126.884 72.8143 127.719 66.006 127.719C59.1976 127.719 52.8253 126.884 48.0628 125.368C43.4872 123.912 41.8261 122.227 41.8261 121.45V110.234C43.0928 110.981 44.7165 111.703 46.7927 112.364C51.9551 114.007 58.7784 114.912 66.006 114.912C73.2336 114.912 80.0571 114.007 85.2196 112.364C87.2958 111.703 88.9195 110.981 90.1862 110.234V121.45C90.1859 122.227 88.5251 123.912 83.9494 125.368ZM83.9492 108.374C79.1864 109.889 72.8141 110.724 66.0057 110.724C59.1976 110.724 52.8253 109.889 48.0626 108.374C43.4869 106.917 41.8258 105.232 41.8258 104.455V93.2389C43.0925 93.9858 44.7162 94.7084 46.7924 95.369C51.9548 97.0121 58.7781 97.9168 66.0057 97.9168C73.2334 97.9168 80.0569 97.0121 85.2193 95.369C87.2955 94.7082 88.9192 93.9858 90.1859 93.2389V104.455C90.1859 105.232 88.5251 106.917 83.9492 108.374ZM83.9492 91.3788C79.1864 92.8947 72.8141 93.7293 66.0057 93.7293C59.1976 93.7293 52.8253 92.8947 48.0626 91.3788C43.4869 89.9224 41.8258 88.2377 41.8258 87.4606C41.8258 86.6836 43.4867 84.9992 48.0626 83.5425C52.8253 82.0266 59.1976 81.192 66.0057 81.192C72.8141 81.192 79.1864 82.0266 83.9492 83.5425C88.5251 84.9989 90.1859 86.6836 90.1859 87.4606C90.1859 88.2377 88.5251 89.9224 83.9492 91.3788ZM70.7308 104.321C70.7308 104.876 70.5102 105.408 70.1176 105.801C69.7249 106.194 69.1924 106.414 68.6371 106.414H63.3747C62.8194 106.414 62.2868 106.194 61.8942 105.801C61.5015 105.408 61.2809 104.876 61.2809 104.321C61.2809 103.765 61.5015 103.233 61.8942 102.84C62.2868 102.447 62.8194 102.227 63.3747 102.227H68.6371C69.1924 102.227 69.7249 102.447 70.1176 102.84C70.5102 103.233 70.7308 103.765 70.7308 104.321ZM70.7308 121.315C70.7308 121.871 70.5102 122.403 70.1176 122.796C69.7249 123.188 69.1924 123.409 68.6371 123.409H63.3747C62.8194 123.409 62.2868 123.188 61.8942 122.796C61.5015 122.403 61.2809 121.871 61.2809 121.315C61.2809 120.76 61.5015 120.227 61.8942 119.835C62.2868 119.442 62.8194 119.222 63.3747 119.222H68.6371C69.1924 119.222 69.7249 119.442 70.1176 119.835C70.5102 120.227 70.7308 120.76 70.7308 121.315ZM22.8813 12.262C11.4191 12.262 2.09375 21.5871 2.09375 33.0493C2.09375 44.5116 11.4191 53.8369 22.8813 53.8369C34.3435 53.8369 43.6686 44.5116 43.6686 33.0493C43.6686 21.5871 34.3435 12.262 22.8813 12.262ZM39.3444 30.9556H35.8395C35.6274 28.4219 35.0107 25.9386 34.013 23.6C34.651 23.3474 35.2769 23.0653 35.8887 22.7546C37.7247 25.0695 38.9555 27.8822 39.3444 30.9556ZM24.9748 18.1486C25.9661 19.0092 26.8692 19.9663 27.671 21.0058C26.7874 21.1521 25.8856 21.2565 24.9748 21.3199V18.1486ZM31.1634 18.6726C31.674 18.9674 32.1685 19.2891 32.645 19.6365C32.4379 19.721 32.2267 19.8014 32.014 19.8799C31.7431 19.4687 31.4594 19.0661 31.1634 18.6726ZM20.7873 18.1486V21.3201C19.8765 21.2568 18.9746 21.1524 18.091 21.0061C18.8928 19.9665 19.796 19.0093 20.7873 18.1486ZM13.7483 19.8796C13.5356 19.8011 13.3246 19.7208 13.1173 19.6362C13.5937 19.2891 14.0882 18.9674 14.5987 18.6726C14.3028 19.066 14.0192 19.4685 13.7483 19.8796ZM20.7873 25.5257V30.9556H14.1276C14.3441 28.8387 14.9039 26.7712 15.785 24.8342C17.3773 25.1883 19.0544 25.4218 20.7873 25.5257ZM20.7873 35.1431V40.5729C19.0586 40.6766 17.3852 40.909 15.796 41.2615C14.9166 39.3247 14.3555 37.2587 14.1344 35.1431H20.7873ZM20.7873 44.7788V47.9479C19.7983 47.0876 18.8976 46.1308 18.0984 45.0918C18.9796 44.946 19.8791 44.8418 20.7873 44.7788ZM14.6139 47.435C14.0979 47.1378 13.5984 46.8132 13.1173 46.4624C13.3288 46.3766 13.5418 46.2945 13.7562 46.2161C14.0293 46.6313 14.3153 47.0377 14.6139 47.435ZM24.9748 47.9479V44.7788C25.8832 44.8418 26.7825 44.946 27.6637 45.0918C26.8645 46.1308 25.9637 47.0876 24.9748 47.9479ZM32.0058 46.2161C32.2215 46.2954 32.4351 46.3771 32.645 46.4627C32.1638 46.8134 31.6642 47.1381 31.1482 47.4352C31.4467 47.0379 31.7327 46.6313 32.0058 46.2161ZM24.9748 40.5729V35.1431H31.6277C31.4066 37.2587 30.8455 39.3247 29.966 41.2615C28.3769 40.9093 26.7034 40.6766 24.9748 40.5729ZM24.9748 30.9556V25.5257C26.7076 25.4218 28.3847 25.1883 29.9773 24.8342C30.8584 26.7712 31.4183 28.8387 31.6347 30.9556H24.9748ZM9.8736 22.7546C10.4854 23.0652 11.1114 23.3473 11.7493 23.6C10.7516 25.9385 10.1349 28.4219 9.9228 30.9556H6.41787C6.80678 27.8822 8.03764 25.0695 9.8736 22.7546ZM6.41787 35.1431H9.92778C10.1452 37.6752 10.7635 40.1567 11.7598 42.4947C11.1181 42.7483 10.4887 43.0318 9.8736 43.3443C8.03764 41.0294 6.80678 38.2164 6.41787 35.1431ZM35.8887 43.3443C35.2734 43.032 34.6439 42.7485 34.0022 42.4947C34.9985 40.1567 35.6169 37.6752 35.8343 35.1431H39.3442C38.9555 38.2164 37.7247 41.0294 35.8887 43.3443ZM48.2931 56.5014H83.7189C84.2742 56.5014 84.8067 56.2808 85.1994 55.8882C85.592 55.4955 85.8126 54.963 85.8126 54.4077V13.0375C85.8126 12.4822 85.592 11.9497 85.1994 11.557L76.3494 2.70696C76.1549 2.51254 75.9241 2.35832 75.6701 2.2531C75.4161 2.14789 75.1438 2.09374 74.8688 2.09375H48.2931C47.7378 2.09375 47.2053 2.31434 46.8126 2.707C46.42 3.09965 46.1994 3.6322 46.1994 4.1875V54.4077C46.1994 54.963 46.42 55.4955 46.8126 55.8882C47.2053 56.2808 47.7378 56.5014 48.2931 56.5014ZM76.9623 9.24207L78.664 10.9438H76.9623V9.24207ZM50.3869 6.28125H72.7748V13.0375C72.7748 13.5928 72.9954 14.1254 73.3881 14.518C73.7807 14.9107 74.3133 15.1313 74.8686 15.1313H81.6248V52.3137H50.3869V6.28125ZM77.6355 46.7629C77.6355 47.3182 77.4149 47.8507 77.0222 48.2434C76.6296 48.636 76.097 48.8566 75.5417 48.8566H56.47C55.9147 48.8566 55.3822 48.636 54.9895 48.2434C54.5968 47.8507 54.3763 47.3182 54.3763 46.7629C54.3763 46.2076 54.5968 45.675 54.9895 45.2824C55.3822 44.8897 55.9147 44.6691 56.47 44.6691H75.5417C76.097 44.6691 76.6296 44.8897 77.0222 45.2824C77.4149 45.675 77.6355 46.2076 77.6355 46.7629ZM77.6355 29.8666C77.6355 30.4219 77.4149 30.9544 77.0222 31.3471C76.6296 31.7397 76.097 31.9603 75.5417 31.9603H56.47C55.9147 31.9603 55.3822 31.7397 54.9895 31.3471C54.5968 30.9544 54.3763 30.4219 54.3763 29.8666C54.3763 29.3113 54.5968 28.7787 54.9895 28.3861C55.3822 27.9934 55.9147 27.7728 56.47 27.7728H75.5417C76.097 27.7728 76.6296 27.9934 77.0222 28.3861C77.4149 28.7787 77.6355 29.3113 77.6355 29.8666ZM54.3765 12.9705C54.3765 12.4152 54.5971 11.8827 54.9898 11.49C55.3824 11.0974 55.915 10.8768 56.4703 10.8768H68.2657C68.821 10.8768 69.3535 11.0974 69.7462 11.49C70.1388 11.8827 70.3594 12.4152 70.3594 12.9705C70.3594 13.5258 70.1388 14.0584 69.7462 14.451C69.3535 14.8437 68.821 15.0643 68.2657 15.0643H56.4703C55.915 15.0643 55.3824 14.8437 54.9898 14.451C54.5971 14.0584 54.3765 13.5258 54.3765 12.9705ZM77.6355 21.4185C77.6355 21.9738 77.4149 22.5064 77.0222 22.899C76.6296 23.2917 76.097 23.5123 75.5417 23.5123H56.47C55.9147 23.5123 55.3822 23.2917 54.9895 22.899C54.5968 22.5064 54.3763 21.9738 54.3763 21.4185C54.3763 20.8632 54.5968 20.3307 54.9895 19.938C55.3822 19.5454 55.9147 19.3248 56.47 19.3248H75.5417C76.097 19.3248 76.6296 19.5454 77.0222 19.938C77.4149 20.3307 77.6355 20.8632 77.6355 21.4185ZM77.6355 38.3146C77.6355 38.8699 77.4149 39.4024 77.0222 39.7951C76.6296 40.1877 76.097 40.4083 75.5417 40.4083H56.47C55.9147 40.4083 55.3822 40.1877 54.9895 39.7951C54.5968 39.4024 54.3763 38.8699 54.3763 38.3146C54.3763 37.7593 54.5968 37.2267 54.9895 36.8341C55.3822 36.4414 55.9147 36.2208 56.47 36.2208H75.5417C76.097 36.2208 76.6296 36.4414 77.0222 36.8341C77.4149 37.2267 77.6355 37.7593 77.6355 38.3146ZM68.0997 59.5078V67.0887L69.295 65.3271C69.6067 64.8676 70.0882 64.5507 70.6336 64.4462C71.1789 64.3417 71.7435 64.4582 72.203 64.7699C72.6625 65.0816 72.9793 65.5631 73.0838 66.1085C73.1883 66.6538 73.0719 67.2183 72.7602 67.6778L67.7386 75.0787C67.5467 75.3616 67.2885 75.5932 66.9865 75.7533C66.6844 75.9134 66.3478 75.9971 66.006 75.9971C65.6642 75.9971 65.3275 75.9134 65.0255 75.7533C64.7235 75.5932 64.4653 75.3616 64.2734 75.0787L59.2518 67.6778C59.0942 67.4504 58.9831 67.194 58.9252 66.9234C58.8673 66.6528 58.8635 66.3734 58.9142 66.1013C58.9649 65.8293 59.0691 65.57 59.2206 65.3384C59.3721 65.1069 59.5681 64.9077 59.7971 64.7523C60.0261 64.597 60.2836 64.4885 60.5548 64.4333C60.826 64.3781 61.1054 64.3772 61.3769 64.4307C61.6484 64.4841 61.9067 64.5909 62.1367 64.7447C62.3667 64.8986 62.5639 65.0965 62.717 65.3271L63.912 67.0885V59.5075C63.912 58.9522 64.1327 58.4196 64.5254 58.027C64.9181 57.6343 65.4507 57.4137 66.006 57.4138C66.5613 57.4138 67.0939 57.6344 67.4866 58.0271C67.8792 58.4198 68.0998 58.9524 68.0997 59.5078ZM120.598 74.0792V101.583C120.598 102.138 120.378 102.671 119.985 103.063C119.593 103.456 119.06 103.676 118.505 103.676H107.528L109.289 104.872C109.745 105.185 110.059 105.666 110.161 106.21C110.264 106.753 110.147 107.315 109.837 107.773C109.526 108.231 109.047 108.547 108.504 108.653C107.961 108.759 107.398 108.645 106.938 108.337L99.5374 103.315C99.2547 103.123 99.0232 102.865 98.8632 102.563C98.7033 102.261 98.6196 101.924 98.6196 101.582C98.6196 101.241 98.7033 100.904 98.8632 100.602C99.0232 100.3 99.2547 100.042 99.5374 99.8499L106.938 94.8283C107.166 94.6739 107.422 94.5659 107.691 94.5103C107.96 94.4548 108.238 94.4528 108.508 94.5045C108.778 94.5563 109.035 94.6607 109.265 94.8119C109.494 94.963 109.692 95.1579 109.847 95.3855C110.158 95.845 110.275 96.4095 110.17 96.9548C110.066 97.5001 109.749 97.9817 109.29 98.2934L107.528 99.4885H116.411V74.0787C116.408 73.8018 116.46 73.527 116.564 73.2703C116.668 73.0136 116.822 72.7801 117.016 72.5832C117.211 72.3863 117.443 72.23 117.698 72.1233C117.954 72.0167 118.228 71.9618 118.505 71.9618C118.782 71.9618 119.056 72.0168 119.312 72.1235C119.567 72.2303 119.799 72.3866 119.994 72.5835C120.188 72.7805 120.342 73.0141 120.446 73.2708C120.55 73.5275 120.602 73.8023 120.598 74.0792ZM33.3924 101.583C33.3924 101.925 33.3087 102.261 33.1487 102.563C32.9886 102.865 32.7571 103.123 32.4743 103.315L25.0734 108.337C24.7275 108.573 24.3185 108.699 23.8999 108.699C23.4518 108.699 23.0155 108.555 22.655 108.289C22.2945 108.023 22.0288 107.649 21.8971 107.22C21.7653 106.792 21.7743 106.333 21.9229 105.91C22.0715 105.488 22.3517 105.124 22.7224 104.872L24.4841 103.677H13.507C12.9517 103.677 12.4192 103.456 12.0265 103.063C11.6339 102.671 11.4133 102.138 11.4133 101.583V63.2713C11.4133 62.716 11.6339 62.1834 12.0265 61.7908C12.4192 61.3981 12.9517 61.1775 13.507 61.1775C14.0623 61.1775 14.5949 61.3981 14.9875 61.7908C15.3802 62.1834 15.6008 62.716 15.6008 63.2713V99.489H24.4838L22.7224 98.294C21.7656 97.6449 21.5162 96.3426 22.1655 95.386C22.8148 94.4294 24.1169 94.1797 25.0737 94.8288L32.4746 99.8504C32.7573 100.042 32.9888 100.301 33.1488 100.602C33.3088 100.904 33.3925 101.241 33.3924 101.583ZM126.511 8.55035H95.0256C92.0507 8.55035 89.6303 10.9707 89.6303 13.9457V62.5872C89.6303 65.5621 92.0507 67.9825 95.0256 67.9825H126.511C129.486 67.9825 131.907 65.5621 131.907 62.5872V13.9457C131.906 10.9707 129.486 8.55035 126.511 8.55035ZM127.719 62.5872C127.719 63.242 127.166 63.795 126.511 63.795H95.0256C94.3711 63.795 93.8178 63.242 93.8178 62.5872V13.9457C93.8178 13.2909 94.3708 12.7379 95.0256 12.7379H126.511C127.166 12.7379 127.719 13.2909 127.719 13.9457V62.5872H127.719ZM123.448 55.7534C123.448 56.3087 123.227 56.8413 122.835 57.2339C122.442 57.6266 121.91 57.8472 121.354 57.8472H100.182C99.627 57.8472 99.0944 57.6266 98.7018 57.2339C98.3091 56.8413 98.0885 56.3087 98.0885 55.7534C98.0885 55.1981 98.3091 54.6656 98.7018 54.2729C99.0944 53.8803 99.627 53.6597 100.182 53.6597H121.354C121.91 53.6597 122.442 53.8803 122.835 54.2729C123.227 54.6656 123.448 55.1981 123.448 55.7534ZM123.448 48.0654C123.448 48.6207 123.227 49.1533 122.835 49.5459C122.442 49.9386 121.91 50.1592 121.354 50.1592H100.182C99.627 50.1592 99.0944 49.9386 98.7018 49.5459C98.3091 49.1533 98.0885 48.6207 98.0885 48.0654C98.0885 47.5101 98.3091 46.9776 98.7018 46.5849C99.0944 46.1923 99.627 45.9717 100.182 45.9717H121.354C121.91 45.9717 122.442 46.1923 122.835 46.5849C123.227 46.9776 123.448 47.5101 123.448 48.0654ZM101.316 39.3889H120.22C120.776 39.3889 121.308 39.1683 121.701 38.7757C122.093 38.383 122.314 37.8505 122.314 37.2952C122.314 32.9263 119.875 29.1167 116.286 27.1559C117.167 25.9738 117.643 24.5385 117.641 23.0642C117.641 19.2745 114.558 16.1912 110.768 16.1912C106.979 16.1912 103.896 19.2743 103.896 23.0642C103.894 24.5385 104.369 25.9738 105.25 27.1559C101.662 29.1165 99.2223 32.9261 99.2223 37.2952C99.2223 37.8505 99.4429 38.383 99.8355 38.7757C100.228 39.1683 100.761 39.3889 101.316 39.3889ZM110.768 20.3787C112.249 20.3787 113.454 21.5834 113.454 23.0642C113.454 24.5448 112.249 25.7495 110.768 25.7495C109.287 25.7495 108.083 24.5448 108.083 23.0642C108.083 21.5834 109.288 20.3787 110.768 20.3787ZM110.768 29.937C114.099 29.937 116.919 32.1608 117.823 35.2014H103.713C104.617 32.1608 107.438 29.937 110.768 29.937Z" fill="url(#paint0_linear_158_331)"/>
<defs>
<linearGradient id="paint0_linear_158_331" x1="25.5322" y1="8.79768" x2="163.308" y2="90.5711" gradientUnits="userSpaceOnUse">
<stop stop-color="#0F93F0"/>
<stop offset="1" stop-color="#043C74"/>
</linearGradient>
</defs>
</svg>
