<svg width="24" height="24" viewBox="0 0 24 24" fill="none" xmlns="http://www.w3.org/2000/svg">
<g clip-path="url(#clip0_117_755)">
<path d="M22.162 5.65605C21.3986 5.99374 20.589 6.21552 19.76 6.31405C20.6337 5.79148 21.2877 4.96906 21.6 4.00005C20.78 4.48805 19.881 4.83005 18.944 5.01505C18.3146 4.34163 17.4804 3.89501 16.5709 3.74463C15.6615 3.59425 14.7279 3.74854 13.9153 4.1835C13.1026 4.61846 12.4564 5.30973 12.0771 6.14984C11.6978 6.98995 11.6067 7.93183 11.818 8.82905C10.1551 8.7457 8.52832 8.31357 7.04328 7.56071C5.55823 6.80785 4.24812 5.7511 3.19799 4.45905C2.82628 5.0975 2.63095 5.82328 2.63199 6.56205C2.63199 8.01205 3.36999 9.29305 4.49199 10.043C3.828 10.0221 3.17862 9.84283 2.59799 9.52005V9.57205C2.59819 10.5377 2.93236 11.4737 3.54384 12.2211C4.15532 12.9686 5.00647 13.4815 5.95299 13.673C5.33661 13.8401 4.6903 13.8647 4.06299 13.745C4.32986 14.5763 4.85 15.3032 5.55058 15.8242C6.25117 16.3451 7.09712 16.6338 7.96999 16.65C7.10247 17.3314 6.10917 17.835 5.04687 18.1322C3.98458 18.4294 2.87412 18.5143 1.77899 18.382C3.69069 19.6115 5.91609 20.2642 8.18899 20.262C15.882 20.262 20.089 13.889 20.089 8.36205C20.089 8.18205 20.084 8.00005 20.076 7.82205C20.8949 7.23022 21.6016 6.49707 22.163 5.65705L22.162 5.65605Z" fill="white"/>
</g>
<defs>
<clipPath id="clip0_117_755">
<rect width="24" height="24" fill="white"/>
</clipPath>
</defs>
</svg>
