<svg width="554" height="150" viewBox="0 0 554 150" fill="none" xmlns="http://www.w3.org/2000/svg">
<g clip-path="url(#clip0_401_458)">
<path d="M57.6017 4.95173L32.8815 4.88231L19.633 27.8283L44.3533 27.8977L57.6017 4.95173Z" fill="#5DA9E5"/>
<path d="M74.8644 122.144L87.2849 143.517L112.731 143.344L100.648 122.555L74.8644 122.144Z" fill="#C5C5C5"/>
<path d="M128.931 27.8275L74.5265 121.561L100.646 122.555L155.297 27.9015L128.931 27.8275Z" fill="#3587C8"/>
<path d="M44.3537 27.8983L19.6335 27.8283L87.5302 144.663L112.25 144.733L44.3537 27.8983Z" fill="url(#paint0_linear_401_458)"/>
<path d="M20.1692 27.5186L32.5898 48.8918L141.349 49.1998L128.928 27.8265L20.1692 27.5186Z" fill="url(#paint1_linear_401_458)"/>
<path d="M100.646 122.556L112.73 143.345L167.716 49.2749L155.295 27.9017L100.646 122.556Z" fill="url(#paint2_linear_401_458)"/>
<path d="M56.1866 48.899L112.25 144.734L125.498 121.788L83.4748 48.8989L56.1866 48.899Z" fill="url(#paint3_linear_401_458)"/>
<path d="M100.646 122.556L113.254 100.719L125.498 121.788L112.25 144.734L99.3597 122.552L100.646 122.556Z" fill="url(#paint4_linear_401_458)"/>
<path d="M155.295 27.9017L167.716 49.2749L180.964 26.3289L168.544 4.95565L155.295 27.9017Z" fill="url(#paint5_linear_401_458)"/>
<path d="M128.927 27.8264L155.294 27.9012L113.253 100.718L100.005 77.9216L128.927 27.8264Z" fill="url(#paint6_linear_401_458)"/>
<path d="M155.294 27.9012L168.543 4.95529L33.417 4.57226L20.1692 27.5182L128.927 27.8264L155.294 27.9012Z" fill="url(#paint7_linear_401_458)"/>
</g>
<path d="M257.539 124.947L238.054 97.4293L217.846 124.947H210L234.263 91.928L211.348 59.3584H223.709L241.66 84.7061L260.246 59.3584H268.092L245.452 90.3061L269.901 124.947H257.539Z" fill="#03659D"/>
<path d="M285.016 65.841V59.7041H335.536V65.841H315.24V125.293H305.311V65.841H285.016Z" fill="#03659D"/>
<path d="M380.543 125.293L378.834 117.359C377.573 119.945 375.403 122.06 372.335 123.715C369.267 125.37 365.595 126.192 361.332 126.192C357.968 126.192 354.954 125.699 352.313 124.702C349.661 123.704 347.59 122.192 346.089 120.143C344.587 118.093 343.831 115.507 343.831 112.384C343.831 110.039 344.324 107.978 345.322 106.203C346.319 104.428 347.678 102.97 349.431 101.831C350.932 100.691 352.62 99.8141 354.483 99.2114C356.346 98.6086 358.527 98.1703 361.025 97.9073C363.524 97.6333 366.483 97.5018 369.913 97.5018C371.414 97.5018 372.949 97.5127 374.516 97.5456C376.083 97.5785 377.497 97.6552 378.757 97.7758V93.5347C378.757 89.8635 377.705 87.0361 375.601 85.0526C373.497 83.069 370.636 82.0718 367.031 82.0718C363.48 82.0718 360.631 82.9485 358.461 84.6909C356.291 86.4334 355.217 89.1402 355.217 92.8114H346.374V91.8142C346.374 88.6909 347.228 86.0279 348.949 83.8252C350.658 81.6334 353.08 79.9457 356.215 78.7731C359.349 77.6005 362.954 77.0088 367.042 77.0088C370.888 77.0088 374.395 77.6444 377.551 78.9046C380.708 80.1649 383.206 82.0827 385.036 84.6361C386.866 87.1896 387.787 90.4224 387.787 94.3347V125.282H380.543V125.293ZM353.036 111.935C353.036 114.817 354.034 116.998 356.017 118.477C358.001 119.945 360.675 120.691 364.05 120.691C366.932 120.691 369.497 120.055 371.721 118.795C373.946 117.534 375.677 115.814 376.905 113.655C378.132 111.485 378.757 109.019 378.757 106.258V102.554C378.099 102.499 377.31 102.466 376.412 102.466C375.513 102.466 374.636 102.466 373.792 102.466C371.327 102.466 368.938 102.543 366.625 102.696C364.313 102.85 362.22 103.167 360.357 103.639C358.494 104.121 356.993 104.877 355.842 105.896C354.998 106.554 354.319 107.398 353.815 108.417C353.289 109.447 353.036 110.619 353.036 111.935Z" fill="#03659D"/>
<path d="M452.631 101.38C452.631 106.071 451.677 110.301 449.792 114.06C447.897 117.819 445.233 120.778 441.803 122.947C438.373 125.117 434.341 126.191 429.716 126.191C425.628 126.191 422.121 125.336 419.206 123.616C416.291 121.906 414.023 119.747 412.401 117.161L411.053 125.282H403.382V56.0986H412.401V85.5121C414.143 83.1121 416.565 81.0957 419.667 79.4628C422.768 77.8409 426.143 77.03 429.814 77.03C434.505 77.03 438.549 78.0711 441.946 80.1423C445.343 82.2135 447.973 85.0847 449.836 88.7559C451.699 92.4271 452.631 96.6353 452.631 101.38ZM427.908 82.5313C424.664 82.5313 421.88 83.3861 419.557 85.1066C417.245 86.8162 415.48 89.1066 414.275 91.9669C413.069 94.8271 412.467 97.9942 412.467 101.479C412.467 104.964 413.058 108.153 414.231 111.046C415.404 113.928 417.135 116.219 419.415 117.906C421.694 119.594 424.521 120.427 427.897 120.427C431.261 120.427 434.088 119.561 436.379 117.808C438.669 116.054 440.39 113.742 441.562 110.86C442.735 107.978 443.327 104.811 443.327 101.391C443.327 97.9723 442.735 94.8381 441.562 92.0107C440.39 89.1833 438.68 86.9039 436.423 85.1505C434.176 83.397 431.338 82.5313 427.908 82.5313Z" fill="#03659D"/>
<path d="M465.167 125.293V56.0986H474.187V125.293H465.167Z" fill="#03659D"/>
<path d="M533.365 109.589C533.365 113.381 532.312 116.504 530.208 118.97C528.104 121.435 525.365 123.255 522 124.427C518.636 125.6 515.052 126.191 511.261 126.191C506.209 126.191 501.847 125.194 498.176 123.211C494.505 121.227 491.677 118.4 489.694 114.729C487.71 111.057 486.713 106.729 486.713 101.742C486.713 96.8657 487.71 92.5698 489.694 88.8438C491.677 85.1178 494.472 82.2138 498.088 80.1425C501.694 78.0713 505.935 77.0303 510.811 77.0303C517.967 77.0303 523.622 79.0466 527.776 83.0795C531.929 87.1123 534 92.6685 534 99.7698C534 100.427 534 101.063 534 101.666C534 102.268 533.934 102.959 533.814 103.737H496.017C496.258 106.926 496.948 109.841 498.088 112.482C499.228 115.134 500.894 117.238 503.096 118.794C505.288 120.361 508.017 121.139 511.261 121.139C513.781 121.139 516.028 120.701 517.978 119.835C519.929 118.97 521.463 117.655 522.581 115.912C523.688 114.17 524.247 112.066 524.247 109.6H533.365V109.589ZM510.811 82.0823C507.743 82.0823 505.156 82.8384 503.052 84.3398C500.948 85.8411 499.326 87.8576 498.176 90.3891C497.036 92.9096 496.346 95.715 496.105 98.7835H525.058C525.058 95.4739 524.543 92.5698 523.524 90.0822C522.504 87.5836 520.948 85.6329 518.877 84.2193C516.817 82.7836 514.121 82.0823 510.811 82.0823Z" fill="#03659D"/>
<path d="M335.734 42.2745C335.734 46.4211 331.847 48.1704 327.7 48.1704C322.193 48.1704 318.597 44.8338 318.597 39.3266C318.597 33.949 322.063 30.418 327.441 30.418C332.657 30.418 335.961 33.4955 335.961 38.7111C335.961 39.197 335.929 39.6505 335.896 40.2013H322.906C323.132 43.2788 324.623 46 327.7 46C330.097 46 331.523 44.6718 331.523 42.2745H335.734ZM327.441 32.5884C324.493 32.5884 323.197 35.1152 322.938 38.0632H331.847C331.847 34.9209 330.583 32.5884 327.441 32.5884Z" fill="#03659D"/>
<path d="M301.926 38.42V47.847H297.747V23H301.926V33.496C302.898 31.779 304.874 30.4185 307.693 30.4185C312.131 30.4185 314.819 33.334 314.819 37.8693V47.847H310.673V38.2904C310.673 35.1805 309.15 33.2368 306.332 33.2368C303.546 33.2368 301.926 35.5369 301.926 38.42Z" fill="#03659D"/>
<path d="M293.655 41.821C293.655 45.9352 289.93 48.1704 285.459 48.1704C280.082 48.1704 276.648 44.769 276.648 39.3914C276.648 34.0786 280.147 30.418 285.492 30.418C289.8 30.418 293.72 32.6208 293.72 36.6054V36.9294H289.476C289.476 34.4997 287.921 32.5884 285.492 32.5884C282.09 32.5884 280.956 35.9899 280.956 39.3914C280.956 42.7929 282.058 45.8704 285.459 45.8704C288.019 45.8704 289.379 44.0887 289.379 41.4971H293.655V41.821Z" fill="#03659D"/>
<path d="M269.426 47.8465L268.714 45.2225C267.871 46.9718 265.733 48.1704 262.656 48.1704C259.092 48.1704 256.501 46.5831 256.501 43.214C256.501 41.3351 257.408 40.0069 258.898 39.0998C260.583 38.0632 262.656 37.7716 265.96 37.7716C266.9 37.7716 267.871 37.804 268.681 37.8364V36.3463C268.681 34.0138 267.418 32.5884 265.118 32.5884C262.85 32.5884 261.522 33.7547 261.522 36.0223H257.44V35.666C257.44 32.4589 260.259 30.418 265.118 30.418C269.459 30.418 272.86 32.4589 272.86 36.7998V47.8465H269.426ZM260.777 42.9872C260.777 44.7366 262.008 45.7732 264.146 45.7732C266.932 45.7732 268.681 43.8295 268.681 41.0435V39.8773H267.321C265.021 39.8773 262.883 40.0393 261.749 40.9463C261.133 41.4323 260.777 42.0802 260.777 42.9872Z" fill="#03659D"/>
<path d="M245.432 48.1704C242.517 48.1704 240.541 46.8746 239.569 45.2873V54.779H235.39V30.7419H239.051L239.536 33.5279C240.411 32.0377 242.16 30.418 245.432 30.418C250.551 30.418 253.628 34.3378 253.628 39.3266C253.628 44.4126 250.486 48.1704 245.432 48.1704ZM244.396 32.88C241.091 32.88 239.569 35.9251 239.569 39.2294C239.569 42.6309 241.027 45.5464 244.46 45.5464C247.797 45.5464 249.32 42.5661 249.32 39.2294C249.32 35.9575 247.797 32.88 244.396 32.88Z" fill="#03659D"/>
<path d="M210 47.8471L218.487 24.2959H224.092L232.547 47.8471H227.525L225.355 41.6272H215.215L212.948 47.8471H210ZM216.155 39.0032H224.448L220.366 27.3086L216.155 39.0032Z" fill="#03659D"/>
<defs>
<linearGradient id="paint0_linear_401_458" x1="120.255" y1="27.5423" x2="75.1704" y2="149.153" gradientUnits="userSpaceOnUse">
<stop offset="0.0370701" stop-color="#084D7E"/>
<stop offset="0.403607" stop-color="#10639C"/>
<stop offset="1" stop-color="#094B79"/>
</linearGradient>
<linearGradient id="paint1_linear_401_458" x1="120.255" y1="27.5423" x2="75.1704" y2="149.153" gradientUnits="userSpaceOnUse">
<stop offset="0.0370701" stop-color="#084D7E"/>
<stop offset="0.403607" stop-color="#10639C"/>
<stop offset="1" stop-color="#094B79"/>
</linearGradient>
<linearGradient id="paint2_linear_401_458" x1="135.085" y1="-3.30467" x2="100.086" y2="158.052" gradientUnits="userSpaceOnUse">
<stop offset="0.0774246" stop-color="#1964A0"/>
<stop offset="0.448809" stop-color="#1A73BA"/>
<stop offset="0.97652" stop-color="#185D94"/>
</linearGradient>
<linearGradient id="paint3_linear_401_458" x1="135.085" y1="-3.30467" x2="100.086" y2="158.052" gradientUnits="userSpaceOnUse">
<stop offset="0.0774246" stop-color="#1964A0"/>
<stop offset="0.448809" stop-color="#1A73BA"/>
<stop offset="0.97652" stop-color="#185D94"/>
</linearGradient>
<linearGradient id="paint4_linear_401_458" x1="135.085" y1="-3.30467" x2="100.086" y2="158.052" gradientUnits="userSpaceOnUse">
<stop offset="0.0774246" stop-color="#1964A0"/>
<stop offset="0.448809" stop-color="#1A73BA"/>
<stop offset="0.97652" stop-color="#185D94"/>
</linearGradient>
<linearGradient id="paint5_linear_401_458" x1="135.085" y1="-3.30467" x2="100.086" y2="158.052" gradientUnits="userSpaceOnUse">
<stop offset="0.0774246" stop-color="#1964A0"/>
<stop offset="0.448809" stop-color="#1A73BA"/>
<stop offset="0.97652" stop-color="#185D94"/>
</linearGradient>
<linearGradient id="paint6_linear_401_458" x1="19.9995" y1="3.22043" x2="136.864" y2="80.3391" gradientUnits="userSpaceOnUse">
<stop stop-color="#64AEE9"/>
<stop offset="1" stop-color="#277CBF"/>
</linearGradient>
<linearGradient id="paint7_linear_401_458" x1="19.9995" y1="3.22043" x2="136.864" y2="80.3391" gradientUnits="userSpaceOnUse">
<stop stop-color="#64AEE9"/>
<stop offset="1" stop-color="#277CBF"/>
</linearGradient>
<clipPath id="clip0_401_458">
<rect width="161" height="140" fill="white" transform="matrix(-1 0 0 1 181 5)"/>
</clipPath>
</defs>
</svg>
