<!--Licensed to the Apache Software Foundation (ASF) under one
or more contributor license agreements.  See the NOTICE file
distributed with this work for additional information
regarding copyright ownership.  The ASF licenses this file
to you under the Apache License, Version 2.0 (the
"License"); you may not use this file except in compliance
with the License.  You may obtain a copy of the License at

http://www.apache.org/licenses/LICENSE-2.0

Unless required by applicable law or agreed to in writing,
software distributed under the License is distributed on an
"AS IS" BASIS, WITHOUT WARRANTIES OR CONDITIONS OF ANY
KIND, either express or implied.  See the License for the
specific language governing permissions and limitations
under the License.-->
<svg width="554" height="150" viewBox="0 0 554 150" fill="none" xmlns="http://www.w3.org/2000/svg">
<g clip-path="url(#clip0_401_490)">
<path d="M57.6018 4.95302L32.8815 4.88297L19.6337 27.8289L44.354 27.899L57.6018 4.95302Z" fill="#5DA9E5"/>
<path d="M74.8645 122.145L87.2854 143.519L112.732 143.347L100.648 122.557L74.8645 122.145Z" fill="#C5C5C5"/>
<path d="M128.93 27.8301L74.528 121.563L100.648 122.559L155.296 27.9048L128.93 27.8301Z" fill="#DCDCDC"/>
<path d="M44.3533 27.9023L19.6331 27.8322L87.5304 144.667L112.251 144.737L44.3533 27.9023Z" fill="url(#paint0_linear_401_490)"/>
<path d="M20.1687 27.5225L32.5895 48.8958L141.349 49.2039L128.928 27.8305L20.1687 27.5225Z" fill="url(#paint1_linear_401_490)"/>
<path d="M100.647 122.557L112.731 143.346L167.716 49.2762L155.295 27.9029L100.647 122.557Z" fill="url(#paint2_linear_401_490)"/>
<path d="M56.1866 48.9L112.25 144.735L125.498 121.789L83.4747 48.9L56.1866 48.9Z" fill="url(#paint3_linear_401_490)"/>
<path d="M100.647 122.557L113.255 100.72L125.498 121.789L112.25 144.735L99.36 122.553L100.647 122.557Z" fill="url(#paint4_linear_401_490)"/>
<path d="M155.295 27.9029L167.716 49.2762L180.964 26.3302L168.543 4.9569L155.295 27.9029Z" fill="url(#paint5_linear_401_490)"/>
<path d="M128.928 27.8264L155.294 27.9012L113.253 100.718L100.005 77.9217L128.928 27.8264Z" fill="url(#paint6_linear_401_490)"/>
<path d="M155.294 27.9012L168.543 4.95531L33.4173 4.57226L20.1694 27.5182L128.928 27.8264L155.294 27.9012Z" fill="url(#paint7_linear_401_490)"/>
<path d="M257.542 124.946L238.056 97.4266L217.847 124.946H210L234.264 91.9249L211.348 59.3535H223.71L241.662 84.7027L260.249 59.3535H268.096L245.454 90.3029L269.904 124.946H257.542Z" fill="#F8F8F8"/>
<path d="M285.02 65.8404V59.7031H335.543V65.8404H315.246V125.295H305.317V65.8404H285.02Z" fill="#F8F8F8"/>
<path d="M380.553 125.291L378.844 117.357C377.583 119.943 375.413 122.058 372.345 123.713C369.276 125.368 365.605 126.19 361.341 126.19C357.977 126.19 354.963 125.697 352.322 124.699C349.67 123.702 347.598 122.19 346.097 120.14C344.595 118.091 343.839 115.504 343.839 112.381C343.839 110.036 344.332 107.975 345.33 106.2C346.327 104.424 347.686 102.967 349.439 101.827C350.941 100.687 352.629 99.8105 354.492 99.2077C356.355 98.605 358.536 98.1666 361.034 97.9035C363.533 97.6296 366.492 97.4981 369.923 97.4981C371.424 97.4981 372.958 97.509 374.526 97.5419C376.093 97.5747 377.507 97.6515 378.767 97.772V93.5307C378.767 89.8593 377.715 87.0318 375.611 85.0482C373.506 83.0645 370.646 82.0672 367.04 82.0672C363.489 82.0672 360.64 82.9439 358.47 84.6865C356.3 86.429 355.226 89.136 355.226 92.8074H346.382V91.8101C346.382 88.6867 347.237 86.0236 348.957 83.8207C350.667 81.6288 353.089 79.941 356.223 78.7684C359.358 77.5957 362.963 77.0039 367.051 77.0039C370.898 77.0039 374.405 77.6395 377.561 78.8999C380.718 80.1602 383.216 82.0781 385.047 84.6317C386.877 87.1852 387.797 90.4182 387.797 94.3308V125.28H380.553V125.291ZM353.045 111.932C353.045 114.814 354.042 116.995 356.026 118.474C358.01 119.943 360.684 120.688 364.059 120.688C366.942 120.688 369.506 120.053 371.731 118.792C373.956 117.532 375.687 115.811 376.915 113.652C378.142 111.482 378.767 109.016 378.767 106.255V102.55C378.109 102.496 377.32 102.463 376.422 102.463C375.523 102.463 374.646 102.463 373.802 102.463C371.336 102.463 368.947 102.539 366.635 102.693C364.322 102.846 362.229 103.164 360.366 103.635C358.503 104.118 357.001 104.874 355.851 105.893C355.007 106.551 354.327 107.394 353.823 108.414C353.297 109.444 353.045 110.616 353.045 111.932Z" fill="#F8F8F8"/>
<path d="M452.644 101.378C452.644 106.069 451.691 110.299 449.806 114.058C447.91 117.817 445.247 120.776 441.816 122.946C438.386 125.116 434.353 126.19 429.728 126.19C425.64 126.19 422.133 125.335 419.218 123.615C416.303 121.905 414.034 119.746 412.412 117.16L411.064 125.281H403.393V56.0938H412.412V85.5089C414.155 83.1088 416.577 81.0922 419.678 79.4593C422.78 77.8373 426.155 77.0263 429.827 77.0263C434.517 77.0263 438.561 78.0674 441.959 80.1387C445.356 82.2101 447.987 85.0815 449.85 88.7529C451.713 92.4243 452.644 96.6327 452.644 101.378ZM427.92 82.5279C424.676 82.5279 421.892 83.3828 419.569 85.1034C417.256 86.8131 415.492 89.1036 414.286 91.964C413.081 94.8244 412.478 97.9917 412.478 101.477C412.478 104.962 413.07 108.151 414.243 111.044C415.415 113.927 417.147 116.217 419.426 117.905C421.706 119.593 424.533 120.426 427.909 120.426C431.273 120.426 434.101 119.56 436.392 117.806C438.682 116.053 440.403 113.74 441.575 110.858C442.748 107.976 443.34 104.808 443.34 101.389C443.34 97.9698 442.748 94.8354 441.575 92.0078C440.403 89.1803 438.693 86.9007 436.435 85.1472C434.189 83.3937 431.35 82.5279 427.92 82.5279Z" fill="#F8F8F8"/>
<path d="M465.182 125.292V56.0938H474.202V125.292H465.182Z" fill="#F8F8F8"/>
<path d="M533.383 109.586C533.383 113.378 532.331 116.501 530.226 118.967C528.122 121.433 525.382 123.252 522.018 124.425C518.653 125.598 515.069 126.189 511.278 126.189C506.225 126.189 501.863 125.192 498.192 123.208C494.521 121.225 491.693 118.397 489.709 114.726C487.726 111.054 486.729 106.725 486.729 101.739C486.729 96.8619 487.726 92.5658 489.709 88.8396C491.693 85.1134 494.488 82.2092 498.104 80.1378C501.71 78.0665 505.951 77.0254 510.828 77.0254C517.985 77.0254 523.64 79.0419 527.793 83.075C531.947 87.108 534.018 92.6645 534.018 99.7662C534.018 100.424 534.018 101.059 534.018 101.662C534.018 102.265 533.953 102.955 533.832 103.734H496.033C496.274 106.923 496.965 109.838 498.104 112.479C499.244 115.131 500.91 117.236 503.113 118.792C505.305 120.359 508.034 121.137 511.278 121.137C513.798 121.137 516.045 120.699 517.996 119.833C519.946 118.967 521.481 117.652 522.599 115.909C523.706 114.167 524.265 112.063 524.265 109.597H533.383V109.586ZM510.828 82.0777C507.76 82.0777 505.173 82.8339 503.069 84.3353C500.965 85.8368 499.343 87.8533 498.192 90.3849C497.052 92.9056 496.362 95.7112 496.121 98.7798H525.076C525.076 95.4701 524.56 92.5658 523.541 90.078C522.522 87.5793 520.966 85.6285 518.894 84.2148C516.834 82.7791 514.138 82.0777 510.828 82.0777Z" fill="#F8F8F8"/>
<path d="M335.742 42.2742C335.742 46.421 331.854 48.1705 327.707 48.1705C322.2 48.1705 318.604 44.8336 318.604 39.3261C318.604 33.9482 322.07 30.417 327.448 30.417C332.664 30.417 335.968 33.4947 335.968 38.7106C335.968 39.1965 335.936 39.6501 335.904 40.2008H322.912C323.139 43.2785 324.629 45.9999 327.707 45.9999C330.105 45.9999 331.53 44.6716 331.53 42.2742H335.742ZM327.448 32.5876C324.5 32.5876 323.204 35.1145 322.945 38.0626H331.854C331.854 34.9202 330.59 32.5876 327.448 32.5876Z" fill="#F8F8F8"/>
<path d="M301.932 38.4209V47.8484H297.753V23H301.932V33.4966C302.904 31.7795 304.88 30.4189 307.699 30.4189C312.137 30.4189 314.826 33.3346 314.826 37.8702V47.8484H310.679V38.2913C310.679 35.1812 309.157 33.2374 306.338 33.2374C303.552 33.2374 301.932 35.5376 301.932 38.4209Z" fill="#F8F8F8"/>
<path d="M293.66 41.8207C293.66 45.9351 289.935 48.1705 285.464 48.1705C280.086 48.1705 276.652 44.7688 276.652 39.3909C276.652 34.0778 280.151 30.417 285.496 30.417C289.805 30.417 293.725 32.62 293.725 36.6048V36.9288H289.481C289.481 34.499 287.926 32.5876 285.496 32.5876C282.095 32.5876 280.961 35.9893 280.961 39.3909C280.961 42.7926 282.062 45.8703 285.464 45.8703C288.023 45.8703 289.384 44.0885 289.384 41.4967H293.66V41.8207Z" fill="#F8F8F8"/>
<path d="M269.43 47.8465L268.717 45.2224C267.875 46.9718 265.737 48.1705 262.659 48.1705C259.096 48.1705 256.504 46.583 256.504 43.2137C256.504 41.3347 257.411 40.0065 258.901 39.0993C260.586 38.0626 262.659 37.7711 265.964 37.7711C266.903 37.7711 267.875 37.8035 268.685 37.8359V36.3456C268.685 34.013 267.422 32.5876 265.121 32.5876C262.854 32.5876 261.525 33.7539 261.525 36.0216H257.443V35.6653C257.443 32.458 260.262 30.417 265.121 30.417C269.463 30.417 272.864 32.458 272.864 36.7992V47.8465H269.43ZM260.78 42.987C260.78 44.7364 262.011 45.7731 264.149 45.7731C266.936 45.7731 268.685 43.8293 268.685 41.0432V39.8769H267.324C265.024 39.8769 262.886 40.0389 261.752 40.946C261.137 41.4319 260.78 42.0799 260.78 42.987Z" fill="#F8F8F8"/>
<path d="M245.434 48.1705C242.519 48.1705 240.542 46.8746 239.571 45.2871V54.7794H235.391V30.741H239.052L239.538 33.5271C240.413 32.0368 242.162 30.417 245.434 30.417C250.553 30.417 253.631 34.337 253.631 39.3261C253.631 44.4124 250.488 48.1705 245.434 48.1705ZM244.398 32.8792C241.093 32.8792 239.571 35.9245 239.571 39.2289C239.571 42.6306 241.028 45.5463 244.462 45.5463C247.799 45.5463 249.322 42.5658 249.322 39.2289C249.322 35.9569 247.799 32.8792 244.398 32.8792Z" fill="#F8F8F8"/>
<path d="M210 47.8494L218.488 24.2969H224.093L232.548 47.8494H227.527L225.356 41.6292H215.216L212.948 47.8494H210ZM216.155 39.005H224.449L220.367 27.3098L216.155 39.005Z" fill="#F8F8F8"/>
</g>
<defs>
<linearGradient id="paint0_linear_401_490" x1="120.254" y1="27.5464" x2="75.17" y2="149.156" gradientUnits="userSpaceOnUse">
<stop offset="0.0370701" stop-color="#979696"/>
<stop offset="0.403607" stop-color="#BBBBBB"/>
<stop offset="1" stop-color="#7F7F7F"/>
</linearGradient>
<linearGradient id="paint1_linear_401_490" x1="120.254" y1="27.5464" x2="75.17" y2="149.156" gradientUnits="userSpaceOnUse">
<stop offset="0.0370701" stop-color="#979696"/>
<stop offset="0.403607" stop-color="#BBBBBB"/>
<stop offset="1" stop-color="#7F7F7F"/>
</linearGradient>
<linearGradient id="paint2_linear_401_490" x1="135.085" y1="-3.3035" x2="100.085" y2="158.052" gradientUnits="userSpaceOnUse">
<stop offset="0.0774246" stop-color="#B1B1B1"/>
<stop offset="0.448809" stop-color="#D9D9D9"/>
<stop offset="0.97652" stop-color="#B3B3B3"/>
</linearGradient>
<linearGradient id="paint3_linear_401_490" x1="135.085" y1="-3.3035" x2="100.085" y2="158.052" gradientUnits="userSpaceOnUse">
<stop offset="0.0774246" stop-color="#B1B1B1"/>
<stop offset="0.448809" stop-color="#D9D9D9"/>
<stop offset="0.97652" stop-color="#B3B3B3"/>
</linearGradient>
<linearGradient id="paint4_linear_401_490" x1="135.085" y1="-3.3035" x2="100.085" y2="158.052" gradientUnits="userSpaceOnUse">
<stop offset="0.0774246" stop-color="#B1B1B1"/>
<stop offset="0.448809" stop-color="#D9D9D9"/>
<stop offset="0.97652" stop-color="#B3B3B3"/>
</linearGradient>
<linearGradient id="paint5_linear_401_490" x1="135.085" y1="-3.3035" x2="100.085" y2="158.052" gradientUnits="userSpaceOnUse">
<stop offset="0.0774246" stop-color="#B1B1B1"/>
<stop offset="0.448809" stop-color="#D9D9D9"/>
<stop offset="0.97652" stop-color="#B3B3B3"/>
</linearGradient>
<linearGradient id="paint6_linear_401_490" x1="19.9997" y1="3.22043" x2="136.864" y2="80.339" gradientUnits="userSpaceOnUse">
<stop stop-color="white"/>
<stop offset="1" stop-color="#EAEAEA"/>
</linearGradient>
<linearGradient id="paint7_linear_401_490" x1="19.9997" y1="3.22043" x2="136.864" y2="80.339" gradientUnits="userSpaceOnUse">
<stop stop-color="white"/>
<stop offset="1" stop-color="#EAEAEA"/>
</linearGradient>
<clipPath id="clip0_401_490">
<rect width="554" height="150" fill="white"/>
</clipPath>
</defs>
</svg>
